<svg width="7" height="8" viewBox="0 0 7 8" fill="none" xmlns="http://www.w3.org/2000/svg">
<path d="M1 0.5C1.13261 0.5 1.25979 0.552679 1.35355 0.646447C1.44732 0.740215 1.5 0.867392 1.5 1V7C1.5 7.13261 1.44732 7.25979 1.35355 7.35355C1.25979 7.44732 1.13261 7.5 1 7.5C0.867392 7.5 0.740215 7.44732 0.646447 7.35355C0.552679 7.25979 0.5 7.13261 0.5 7V1C0.5 0.867392 0.552679 0.740215 0.646447 0.646447C0.740215 0.552679 0.867392 0.5 1 0.5ZM3.5 0.5C3.63261 0.5 3.75979 0.552679 3.85355 0.646447C3.94732 0.740215 4 0.867392 4 1V7C4 7.13261 3.94732 7.25979 3.85355 7.35355C3.75979 7.44732 3.63261 7.5 3.5 7.5C3.36739 7.5 3.24021 7.44732 3.14645 7.35355C3.05268 7.25979 3 7.13261 3 7V1C3 0.867392 3.05268 0.740215 3.14645 0.646447C3.24021 0.552679 3.36739 0.5 3.5 0.5ZM6.5 1C6.5 0.867392 6.44732 0.740215 6.35355 0.646447C6.25979 0.552679 6.13261 0.5 6 0.5C5.86739 0.5 5.74021 0.552679 5.64645 0.646447C5.55268 0.740215 5.5 0.867392 5.5 1V7C5.5 7.13261 5.55268 7.25979 5.64645 7.35355C5.74021 7.44732 5.86739 7.5 6 7.5C6.13261 7.5 6.25979 7.44732 6.35355 7.35355C6.44732 7.25979 6.5 7.13261 6.5 7V1Z" fill="#666666"/>
</svg>
